<?xml version="1.0" encoding="utf-8"?>
<!-- Generator: Adobe Illustrator 24.2.3, SVG Export Plug-In . SVG Version: 6.00 Build 0)  -->
<svg version="1.1" id="Layer_1" xmlns="http://www.w3.org/2000/svg" xmlns:xlink="http://www.w3.org/1999/xlink" x="0px" y="0px"
	 viewBox="0 0 135 30" style="enable-background:new 0 0 135 30;" xml:space="preserve">
<style type="text/css">
	.st0{fill-rule:evenodd;clip-rule:evenodd;}
</style>
<desc>Created with Sketch.</desc>
<g id="Page-1">
	<g id="Desktop-HD" transform="translate(-1118.000000, -682.000000)">
		<g id="logo-6" transform="translate(1118.000000, 681.000000)">
			<path id="Fill-43" class="st0" d="M127.9,28.4c-0.4-0.2-0.8-0.1-1.1,0.3c-0.2,0.3-0.5,0.5-0.9,0.5c-0.6,0-1.1-0.5-1.1-1.1v-1.7v0
				c0-0.6,0.5-1.1,1.1-1.1c0.4,0,0.7,0.2,0.9,0.5c0.2,0.2,0.4,0.3,0.6,0.3c0.2,0,0.3,0,0.4-0.1c0.4-0.2,0.4-0.7,0.2-1.1
				c-0.5-0.7-1.3-1.2-2.2-1.2c-1.4,0-2.5,1.1-2.6,2.4c0,0,0,0.1,0,0.1v2c0,0.1,0,0.2,0,0.3c0.2,1.2,1.3,2.1,2.6,2.1
				c0.9,0,1.8-0.5,2.3-1.3C128.4,29.1,128.3,28.6,127.9,28.4"/>
			<path id="Fill-44" class="st0" d="M131.8,29.2C131.8,29.2,131.8,29.2,131.8,29.2c-0.6,0-1.1-0.5-1.1-1.1v-1.7
				c0-0.6,0.5-1.1,1.1-1.1c0.4,0,0.7,0.2,0.9,0.5c0.1,0.2,0.2,0.4,0.2,0.6v1.7c0,0.2-0.1,0.4-0.2,0.6
				C132.5,29.1,132.2,29.2,131.8,29.2 M134.5,26.3C134.5,26.3,134.5,26.3,134.5,26.3C134.4,26.3,134.4,26.2,134.5,26.3
				c-0.1-0.5-0.2-0.9-0.4-1.3c-0.5-0.7-1.3-1.2-2.2-1.2c-1.4,0-2.5,1.1-2.6,2.4c0,0,0,0.1,0,0.1v2c0,0.1,0,0.2,0,0.3
				c0.2,1.2,1.3,2.1,2.6,2.1c0,0,0.1,0,0.1,0c0.8,0,1.6-0.5,2.1-1.2c0.2-0.3,0.3-0.6,0.4-1c0-0.1,0.1-0.2,0.1-0.3L134.5,26.3
				C134.5,26.3,134.5,26.3,134.5,26.3"/>
			<path id="Fill-45" class="st0" d="M61.7,26.1L61.7,26.1c0,0-0.1,0.1-0.1,0.1L61.7,26.1z"/>
			<path id="Fill-46" class="st0" d="M90.8,27.3c-1.8,0-3.3-1.5-3.3-3.4V9c0-2.5-2.1-4.6-4.6-4.6c-2.1,0-3.8,1.4-4.4,3.3
				c0.4-0.1,0.8-0.2,1.3-0.2c2.5,0,4.6,2.1,4.6,4.6v14.9c0,1.9,1.5,3.4,3.3,3.4c0.9,0,1.6-0.3,2.2-0.9l0,0l3.5-3.5l0,0
				C92.7,26.8,91.8,27.3,90.8,27.3"/>
			<path id="Fill-47" class="st0" d="M71.6,17.3V9c0-2.5-2.1-4.6-4.6-4.6c-2.1,0-3.8,1.4-4.4,3.3c0.4-0.1,0.8-0.2,1.3-0.2
				c2.5,0,4.6,2.1,4.6,4.6v8.2c0,1.9,1.5,3.4,3.3,3.4c0.7,0,1.3-0.2,1.9-0.6l0,0l0.2-0.2c0.2-0.2,0.4-0.4,0.6-0.6l2.5-2.6
				c-0.6,0.5-1.3,0.7-2.1,0.7C73.1,20.6,71.6,19.1,71.6,17.3"/>
			<path id="Fill-48" class="st0" d="M55.8,24V8.6c0-0.2,0-0.3,0-0.5c0.2-2,0.8-3.8,1.9-5.3c-2.8,1.9-4.7,4.9-5,8.4
				c0,0.2,0,0.3,0,0.5v15.4c0,1.9,1.5,3.4,3.3,3.4c0.8,0,1.6-0.3,2.2-0.8l0,0l0,0c0.1-0.1,0.1-0.1,0.2-0.2l2.9-2.9
				c-0.6,0.5-1.4,0.9-2.2,0.9C57.3,27.3,55.8,25.8,55.8,24"/>
			<path id="Fill-49" class="st0" d="M49.9,23.2C50,23.2,50,23.2,49.9,23.2C49.9,23.2,49.9,23.3,49.9,23.2
				C49.9,23.3,49.9,23.2,49.9,23.2"/>
			<path id="Fill-50" class="st0" d="M41.1,27.6c-5.5,0-10-4-11-9.2c-0.1-0.4-0.2-0.7-0.2-1.1V8.6c0-0.2,0-0.4,0.1-0.6
				c0.2-2.3,1.1-4.4,2.5-6.1l-1.6,1.6c-0.5,0.4-1,0.9-1.4,1.4l0,0v0c-1.4,1.7-2.4,3.9-2.6,6.2c0,0.2-0.1,0.4-0.1,0.6v8.7
				c0,0.4,0.1,0.8,0.2,1.1c1,5.2,5.6,9.2,11,9.2c2.4,0,4.7-0.8,6.5-2.1l0,0c0,0,0,0,0.1-0.1c0.6-0.4,1.1-0.9,1.5-1.4
				c0.9-0.9,2.1-2,3.2-3.3C47.3,26.2,44.3,27.6,41.1,27.6"/>
			<path id="Fill-51" class="st0" d="M50.1,23C50.1,23,50.1,23,50.1,23C50.1,23,50.1,23,50.1,23"/>
			<path id="Fill-52" class="st0" d="M50.6,6.3L50.6,6.3C50.5,6.3,50.5,6.3,50.6,6.3L50.6,6.3z"/>
			<path id="Fill-53" class="st0" d="M44.9,6.5c-0.9-1.3-2.3-2-3.8-2c-2.1,0-3.8,1.4-4.4,3.3c0.4-0.1,0.8-0.2,1.3-0.2
				c1.5,0,2.9,0.8,3.8,2c0.6,1,1.7,1.5,2.8,1.5c0.6,0,1.3-0.2,1.9-0.6c0.4-0.3,0.7-0.6,0.9-1l2-2.1C48.8,7.8,48.2,8,47.7,8
				C46.6,8,45.5,7.5,44.9,6.5"/>
			<path id="Fill-54" class="st0" d="M14.5,4.4c-2.1,0-3.8,1.4-4.4,3.3c0.4-0.1,0.8-0.2,1.3-0.2c2.5,0,4.6,2.1,4.6,4.6v2.4h3.1V9
				C19.1,6.5,17.1,4.4,14.5,4.4"/>
			<path id="Fill-56" class="st0" d="M25,26.1L25,26.1c0,0-0.1,0.1-0.1,0.1L25,26.1z"/>
			<path id="Fill-57" class="st0" d="M3.3,24V8.6c0-0.2,0-0.3,0-0.5c0.2-2.3,1.1-4.5,2.5-6.2L4.5,3.3C3.8,3.9,3.2,4.5,2.6,5.2l0,0
				l0,0c-1.3,1.7-2.2,3.8-2.4,6c0,0.2,0,0.3,0,0.5v15.4c0,1.9,1.5,3.4,3.3,3.4c0.8,0,1.6-0.3,2.2-0.8l0,0l0,0
				c0.1-0.1,0.1-0.1,0.2-0.2l2.9-2.9c-0.6,0.5-1.4,0.9-2.2,0.9C4.8,27.3,3.3,25.8,3.3,24"/>
			<path id="Fill-58" class="st0" d="M19.1,24v-2.7H10V24c0,0.1,0,0.3,0,0.4H16v2.7c0,1.9,1.5,3.4,3.3,3.4c0.8,0,1.6-0.3,2.2-0.8
				l0,0l0,0c0.1-0.1,0.1-0.1,0.2-0.2l2.9-2.9c-0.6,0.5-1.4,0.9-2.2,0.9C20.6,27.3,19.1,25.8,19.1,24"/>
			<path id="Fill-59" class="st0" d="M9.2,26.1L9.2,26.1c0,0-0.1,0.1-0.1,0.1L9.2,26.1z"/>
			<path id="Fill-60" class="st0" d="M118.1,14.9h-12.5v1.2c0,0.7,0.2,1.3,0.4,1.9h8.4c0.8-1.1,2.1-1.5,3.4-1.2l2.8-3.1l0,0
				C120,14.5,119.1,14.9,118.1,14.9"/>
			<path id="Fill-61" class="st0" d="M114,6.4c-0.9-1.3-2.3-2-3.8-2c-2.1,0-3.8,1.4-4.4,3.3c0.4-0.1,0.8-0.2,1.3-0.2
				c0.9,0,1.8,0.3,2.5,0.8h5.1C114.6,7.6,114.3,6.9,114,6.4"/>
			<path id="Fill-62" class="st0" d="M110.2,27.4c-5.3,0-9.8-3.8-10.9-8.8c-0.2-0.4-0.3-0.9-0.3-1.4V8.6c0-0.1,0-0.3,0-0.4
				c0.2-2.4,1.1-4.6,2.5-6.3L100,3.3c-2.4,1.9-3.9,4.8-4.1,8c0,0.1,0,0.3,0,0.4v8.7c0,0.5,0.1,0.9,0.3,1.4c1.1,5,5.6,8.8,10.9,8.8
				c0,0,0,0,0,0c2.3,0,4.5-0.7,6.3-2l0,0c0,0,0.1-0.1,0.3-0.2c0.6-0.4,1.1-0.9,1.6-1.4c0.8-0.8,1.8-1.7,2.7-2.7
				C115.9,26.3,113.1,27.4,110.2,27.4C110.2,27.4,110.2,27.4,110.2,27.4"/>
			<path id="Fill-63" class="st0" d="M24.9,26.2l-0.2,0.2C24.8,26.4,24.8,26.3,24.9,26.2"/>
			<path id="Fill-64" class="st0" d="M9.1,26.2l-0.2,0.2C9,26.4,9,26.3,9.1,26.2"/>
			<path id="Fill-65" class="st0" d="M61.6,26.2l-0.2,0.2C61.5,26.4,61.6,26.3,61.6,26.2"/>
			<path id="Fill-66" class="st0" d="M50.1,23.1c0,0-0.1,0.1-0.1,0.1C50,23.2,50,23.1,50.1,23.1"/>
			<path id="Fill-67" class="st0" d="M49.9,23.3c-0.2,0.2-0.3,0.4-0.5,0.6C49.5,23.7,49.7,23.5,49.9,23.3"/>
		</g>
	</g>
</g>
</svg>
