<?xml version="1.0" encoding="utf-8"?>
<!-- Generator: Adobe Illustrator 24.2.3, SVG Export Plug-In . SVG Version: 6.00 Build 0)  -->
<svg version="1.1" id="Layer_1" xmlns="http://www.w3.org/2000/svg" xmlns:xlink="http://www.w3.org/1999/xlink" x="0px" y="0px"
	 viewBox="0 0 150 29" style="enable-background:new 0 0 150 29;" xml:space="preserve">
<style type="text/css">
	.st0{fill-rule:evenodd;clip-rule:evenodd;}
</style>
<desc>Created with Sketch.</desc>
<g id="Page-1">
	<g id="Desktop-HD" transform="translate(-1112.000000, -438.000000)">
		<g id="logo-4" transform="translate(1112.000000, 438.000000)">
			<path id="Fill-76" class="st0" d="M76.7,24.3V6.4l17.7,11.3c0.4,0.2,0.8,0.3,1.2,0.3c0.4,0,0.8-0.1,1.2-0.3l17.7-11.3v17.9H76.7z
				 M109.3,4.7l-13.8,8.8L81.7,4.7H109.3z M114.4,0.4H76.7h-2.1h-2.1v23.9v4.2h4.3h37.7h4.3v-4.2V0.4h-2.1H114.4z"/>
			<path id="Fill-77" class="st0" d="M10.2,18.2l4.3-11.6l4.3,11.6H10.2z M10.8,0.8l-10.6,27h6.7l1.7-4.6h11.8l1.7,4.6h6.7l-10.6-27
				H10.8z"/>
			<path id="Fill-78" class="st0" d="M51.9,5.5c2.8,0,5.3,1.7,6.5,3.9l5-2.4c-1.9-3.4-5.4-6.6-11.5-6.6c-8.2,0-14.6,5.7-14.6,14
				s6.4,14,14.6,14c6,0,9.5-3.3,11.5-6.6l-5-2.4c-1.2,2.2-3.6,3.9-6.5,3.9c-5,0-8.6-3.8-8.6-8.9C43.3,9.3,46.9,5.5,51.9,5.5"/>
			<polygon id="Fill-79" class="st0" points="149.7,5.9 149.7,0.8 130.3,0.8 130.3,27.9 149.7,27.9 149.7,22.8 136.1,22.8 
				136.1,16.7 149.4,16.7 149.4,11.6 136.1,11.6 136.1,5.9 			"/>
		</g>
	</g>
</g>
</svg>
