<?xml version="1.0" encoding="utf-8"?>
<!-- Generator: Adobe Illustrator 24.2.3, SVG Export Plug-In . SVG Version: 6.00 Build 0)  -->
<svg version="1.1" id="Layer_1" xmlns="http://www.w3.org/2000/svg" xmlns:xlink="http://www.w3.org/1999/xlink" x="0px" y="0px"
	 viewBox="0 0 70 88" style="enable-background:new 0 0 70 88;" xml:space="preserve">
<style type="text/css">
	.st0{fill-rule:evenodd;clip-rule:evenodd;}
</style>
<desc>Created with Sketch.</desc>
<g id="Page-1">
	<g id="Desktop-HD" transform="translate(-836.000000, -406.000000)">
		<g id="logo-3" transform="translate(836.000000, 406.000000)">
			<path id="Fill-1" class="st0" d="M58.5,50c0.3-1.5,0.4-3,0.4-4.6c0-3.9-1-7.6-2.7-10.9c1.7-3.3,2.7-7,2.7-10.9
				c0-1.6-0.2-3.1-0.4-4.6c4.5,3.6,7.5,9.2,7.5,15.4C65.9,40.8,63,46.4,58.5,50L58.5,50z M35.2,65.2c-6.3,0-11.8-2.9-15.5-7.4
				c1.5,0.3,3,0.4,4.6,0.4c3.9,0,7.6-1,10.9-2.6c3.3,1.7,7,2.6,10.9,2.6c1.6,0,3.1-0.2,4.6-0.4C47,62.3,41.4,65.2,35.2,65.2
				L35.2,65.2z M4.4,34.6c0-6.2,2.9-11.8,7.5-15.4c-0.3,1.5-0.4,3-0.4,4.6c0,3.9,1,7.6,2.7,10.9c-1.7,3.3-2.7,7-2.7,10.9
				c0,1.6,0.2,3.1,0.4,4.6C7.4,46.4,4.4,40.8,4.4,34.6L4.4,34.6z M47.6,39.1c0.3-1.5,0.4-3,0.4-4.6c0-1.6-0.2-3.1-0.4-4.6
				c1.6,1.3,3,2.8,4.2,4.6C50.6,36.3,49.2,37.8,47.6,39.1L47.6,39.1z M30.6,46.9c1.5,0.3,3,0.4,4.6,0.4c1.6,0,3.1-0.2,4.6-0.4
				c-1.3,1.6-2.8,3-4.6,4.2C33.5,50,31.9,48.5,30.6,46.9L30.6,46.9z M22.8,30c-0.3,1.5-0.4,3-0.4,4.6c0,1.6,0.2,3.1,0.4,4.6
				c-1.6-1.3-3-2.8-4.2-4.6C19.8,32.8,21.2,31.3,22.8,30L22.8,30z M44.1,34.6c0,2.6-0.5,5.2-1.5,7.5c-2.3,0.9-4.8,1.5-7.5,1.5
				S30,43,27.7,42c-0.9-2.3-1.5-4.8-1.5-7.5c0-2.6,0.5-5.2,1.5-7.5c2.3-0.9,4.8-1.5,7.5-1.5s5.2,0.5,7.5,1.5
				C43.6,29.4,44.1,31.9,44.1,34.6L44.1,34.6z M39.8,22.2c-1.5-0.3-3-0.4-4.6-0.4c-1.6,0-3.1,0.2-4.6,0.4c1.3-1.6,2.8-3,4.6-4.2
				C36.9,19.2,38.5,20.6,39.8,22.2L39.8,22.2z M15.3,23.7c0-2.6,0.5-5.2,1.5-7.5c2.3-0.9,4.8-1.5,7.5-1.5c2.5,0,4.8,0.5,7,1.3
				c-2.7,2.2-5,5-6.5,8.1c-3.2,1.6-6,3.8-8.1,6.5C15.8,28.5,15.3,26.1,15.3,23.7L15.3,23.7z M15.3,45.4c0-2.5,0.5-4.8,1.3-7
				c2.2,2.7,5,5,8.1,6.5c1.6,3.2,3.8,5.9,6.5,8.1c-2.2,0.8-4.5,1.3-7,1.3c-2.6,0-5.2-0.5-7.5-1.5C15.9,50.6,15.3,48.1,15.3,45.4
				L15.3,45.4z M55,45.4c0,2.6-0.5,5.2-1.5,7.5c-2.3,0.9-4.8,1.5-7.5,1.5c-2.5,0-4.8-0.5-7-1.3c2.7-2.2,5-5,6.5-8.1
				c3.2-1.6,6-3.8,8.1-6.5C54.6,40.6,55,43,55,45.4L55,45.4z M55,23.7c0,2.5-0.5,4.8-1.3,7c-2.2-2.7-5-5-8.1-6.5
				c-1.6-3.2-3.8-5.9-6.5-8.1c2.2-0.8,4.5-1.3,7-1.3c2.6,0,5.2,0.5,7.5,1.5C54.5,18.5,55,21,55,23.7L55,23.7z M35.2,3.9
				c6.3,0,11.8,2.9,15.5,7.4c-1.5-0.3-3-0.4-4.6-0.4c-3.9,0-7.6,1-10.9,2.6c-3.3-1.7-7-2.6-10.9-2.6c-1.6,0-3.1,0.2-4.6,0.4
				C23.3,6.8,28.9,3.9,35.2,3.9L35.2,3.9z M69.8,34.6c0-9.3-5.4-17.4-13.3-21.3C52.6,5.4,44.5,0,35.2,0S17.7,5.4,13.9,13.3
				C6,17.1,0.6,25.2,0.6,34.6C0.6,43.9,6,52,13.9,55.8c3.9,7.9,12,13.3,21.3,13.3s17.5-5.4,21.3-13.3C64.4,52,69.8,43.9,69.8,34.6
				L69.8,34.6z"/>
			<path id="Fill-3" class="st0" d="M5.7,86.4c0.8,0,1.6-0.6,1.9-1V84c-0.1-0.1-0.7-0.3-1.5-0.3c-1,0-1.7,0.5-1.7,1.4
				C4.5,85.8,5,86.4,5.7,86.4 M6,82.4c0.9,0,1.6,0.2,1.6,0.2c0-1.3-0.2-1.8-1.3-1.8c-1,0-1.9,0.2-2.3,0.4c-0.2,0.1-0.4-0.1-0.5-0.3
				l-0.2-0.8c-0.1-0.3,0.1-0.4,0.3-0.5c0.1-0.1,1.3-0.5,2.9-0.5c2.7,0,2.9,1.6,2.9,3.7v4.4c0,0.2-0.2,0.4-0.4,0.4H8.4
				c-0.2,0-0.3-0.1-0.4-0.3l-0.2-0.6c-0.5,0.4-1.3,1.1-2.6,1.1c-1.6,0-2.7-1.1-2.7-2.8C2.6,83.6,3.9,82.4,6,82.4"/>
			<path id="Fill-5" class="st0" d="M15.8,79.2c1.3,0,2.2,0.5,3,1.5c0.1,0.2,0.1,0.4-0.1,0.6L18,81.8c-0.2,0.2-0.4,0.1-0.6-0.1
				c-0.4-0.4-1-0.8-1.7-0.8c-1.3,0-2.4,1.1-2.4,2.5c0,1.4,1,2.6,2.4,2.6c1.1,0,1.5-0.5,1.9-1c0.2-0.2,0.4-0.2,0.6,0l0.6,0.5
				c0.2,0.2,0.3,0.4,0.1,0.6c-0.7,1.1-1.8,1.7-3.2,1.7c-2.3,0-4.3-1.8-4.3-4.3C11.4,81.1,13.5,79.2,15.8,79.2"/>
			<path id="Fill-7" class="st0" d="M21,79.8c0-0.2,0.2-0.4,0.4-0.4H22c0.2,0,0.3,0.1,0.4,0.2l0.2,0.7c0.2-0.2,1.1-1.2,2.7-1.2
				c1.2,0,2.1,0.5,2.7,1.3c0.2-0.2,1.4-1.3,3-1.3c2.5,0,3.4,1.8,3.4,3.9v4.2c0,0.2-0.2,0.4-0.4,0.4h-1.2c-0.2,0-0.4-0.2-0.4-0.4V83
				c0-1.3-0.6-2-1.7-2c-1.3,0-2,0.9-2.1,1c0,0.2,0.1,0.6,0.1,1v4.3c0,0.2-0.2,0.4-0.4,0.4h-1.1c-0.2,0-0.4-0.2-0.4-0.4V83
				c0-1.3-0.6-2-1.8-2c-1.2,0-2,1-2.1,1.2v5.1c0,0.2-0.2,0.4-0.4,0.4h-1.2c-0.2,0-0.4-0.2-0.4-0.4V79.8z"/>
			<path id="Fill-9" class="st0" d="M42.5,82.6c-0.1-1-0.9-1.8-1.9-1.8c-1.1,0-2,0.8-2.1,1.8H42.5z M40.6,79.2
				c2.2,0,3.8,1.6,3.8,3.8c0,0.1,0,0.4,0,0.6c0,0.2-0.2,0.4-0.4,0.4h-5.6c0.1,1.1,1,2.2,2.4,2.2c0.7,0,1.4-0.3,1.8-0.6
				c0.2-0.1,0.4-0.2,0.6,0l0.6,0.8c0.1,0.2,0.2,0.3,0,0.5c-0.6,0.5-1.7,1-3.1,1c-2.5,0-4.2-2-4.2-4.3C36.4,81.2,38.1,79.2,40.6,79.2
				L40.6,79.2z"/>
			<path id="Fill-11" class="st0" d="M54.7,79.2c1.3,0,2.2,0.5,3,1.5c0.1,0.2,0.1,0.4-0.1,0.6l-0.7,0.6c-0.2,0.2-0.4,0.1-0.6-0.1
				c-0.4-0.4-1-0.8-1.7-0.8c-1.3,0-2.4,1.1-2.4,2.5c0,1.4,1,2.6,2.4,2.6c1.1,0,1.5-0.5,1.9-1c0.2-0.2,0.4-0.2,0.6,0l0.6,0.5
				c0.2,0.2,0.3,0.4,0.1,0.6c-0.7,1.1-1.8,1.7-3.2,1.7c-2.3,0-4.3-1.8-4.3-4.3C50.3,81.1,52.4,79.2,54.7,79.2"/>
			<path id="Fill-13" class="st0" d="M63.5,86.1c1.3,0,2.3-1.2,2.3-2.6c0-1.4-1-2.5-2.3-2.5c-1.3,0-2.3,1.1-2.3,2.5
				C61.2,84.9,62.2,86.1,63.5,86.1 M63.5,79.1c2.3,0,4.2,2,4.2,4.3c0,2.4-1.9,4.4-4.2,4.4s-4.2-2-4.2-4.4
				C59.4,81.1,61.2,79.1,63.5,79.1"/>
		</g>
	</g>
</g>
</svg>
